ffmpeg started on 2025-06-27 at 12:15:13
Report written to "D:\Convert\FFMetrics\reports\psnr_report-6.txt"
Log level: 32
Command line:
ffmpeg -hide_banner -nostdin -i "G:\\\xc0\xed\xe8\xec\xe5\\[\xd2\xee\xef]\\\xcf\xf0\xee\xe4\xe5\xeb\xea\xe8 \xd1\xe0\xea\xf3\xf0\xfb\\Bonus\\NC\\Sakura Trick TV NCOP_HEVC.mkv" -i "G:\\\xc0\xed\xe8\xec\xe5\\[\xd2\xee\xef]\\\xcf\xf0\xee\xe4\xe5\xeb\xea\xe8 \xd1\xe0\xea\xf3\xf0\xfb\\Bonus\\NC\\Sakura Trick TV NCOP.mkv" -lavfi "[0:v]settb=AVTB,setpts=PTS-STARTPTS,format=pix_fmts=yuv420p10,fps=24000/1001,scale=1920:1080:flags=bicubic[main];[1:v]settb=AVTB,setpts=PTS-STARTPTS,format=pix_fmts=yuv420p10,fps=24000/1001,scale=1920:1080:flags=bicubic[ref];[main][ref]psnr=eof_action=endall:stats_file='D\\:/Convert/FFMetrics/logs/psnr_logfile-6.txt'" -f null -
Input #0, matroska,webm, from 'G:\Аниме\[Топ]\Проделки Сакуры\Bonus\NC\Sakura Trick TV NCOP_HEVC.mkv':
  Metadata:
    title           : Sakura Trick TV NCOP
    ENCODER         : Lavf61.7.100
  Duration: 00:01:31.11, start: -0.021000, bitrate: 1850 kb/s
  Stream #0:0(jpn): Video: hevc (Main 10), yuv420p10le(tv, bt709, progressive), 1920x1080 [SAR 1:1 DAR 16:9], 23.98 fps, 23.98 tbr, 1k tbn (default)
      Metadata:
        title           : [VCB & Hakugetsu & DMG]
        ENCODER         : Lavc61.19.100 libx265
        BPS             : 1649777
        DURATION        : 00:01:31.090708333
        NUMBER_OF_FRAMES: 2184
        NUMBER_OF_BYTES : 18784776
        _STATISTICS_WRITING_APP: mkvpropedit v66.0.0 ('Josie') 64-bit
        _STATISTICS_WRITING_DATE_UTC: 2025-06-27 08:43:43
        _STATISTICS_TAGS: BPS DURATION NUMBER_OF_FRAMES NUMBER_OF_BYTES
  Stream #0:1(jpn): Audio: aac (LC), 48000 Hz, stereo, fltp (default)
      Metadata:
        title           : [Original]
        ENCODER         : Lavc61.19.100 aac
        BPS             : 196678
        DURATION        : 00:01:31.093000000
        NUMBER_OF_FRAMES: 4271
        NUMBER_OF_BYTES : 2239499
        _STATISTICS_WRITING_APP: mkvpropedit v66.0.0 ('Josie') 64-bit
        _STATISTICS_WRITING_DATE_UTC: 2025-06-27 08:43:43
        _STATISTICS_TAGS: BPS DURATION NUMBER_OF_FRAMES NUMBER_OF_BYTES
Input #1, matroska,webm, from 'G:\Аниме\[Топ]\Проделки Сакуры\Bonus\NC\Sakura Trick TV NCOP.mkv':
  Metadata:
    title           : Sakura Trick TV NCOP
    encoder         : libebml v1.3.6 + libmatroska v1.4.9
    creation_time   : 2018-07-04T17:50:07.000000Z
  Duration: 00:01:31.09, start: 0.000000, bitrate: 5704 kb/s
  Stream #1:0(jpn): Video: h264 (High 10), yuv420p10le(tv, bt709/unknown/unknown, progressive), 1920x1080 [SAR 1:1 DAR 16:9], 23.98 fps, 23.98 tbr, 1k tbn (default)
      Metadata:
        title           : [VCB & Hakugetsu & DMG]
  Stream #1:1(jpn): Audio: flac, 48000 Hz, stereo, s16 (default)
      Metadata:
        title           : [Original]
Stream mapping:
  Stream #0:0 (hevc) -> settb:default
  Stream #1:0 (h264) -> settb:default
  psnr:default -> Stream #0:0 (wrapped_avframe)
  Stream #0:1 -> #0:1 (aac (native) -> pcm_s16le (native))
Output #0, null, to 'pipe:':
  Metadata:
    title           : Sakura Trick TV NCOP
    encoder         : Lavf61.7.100
  Stream #0:0: Video: wrapped_avframe, yuv420p10le(tv, bt709, progressive), 1920x1080 [SAR 1:1 DAR 16:9], q=2-31, 200 kb/s, 23.98 fps, 23.98 tbn
      Metadata:
        encoder         : Lavc61.19.100 wrapped_avframe
  Stream #0:1(jpn): Audio: pcm_s16le, 48000 Hz, stereo, s16, 1536 kb/s (default)
      Metadata:
        title           : [Original]
        _STATISTICS_TAGS: BPS DURATION NUMBER_OF_FRAMES NUMBER_OF_BYTES
        BPS             : 196678
        DURATION        : 00:01:31.093000000
        NUMBER_OF_FRAMES: 4271
        NUMBER_OF_BYTES : 2239499
        _STATISTICS_WRITING_APP: mkvpropedit v66.0.0 ('Josie') 64-bit
        _STATISTICS_WRITING_DATE_UTC: 2025-06-27 08:43:43
        encoder         : Lavc61.19.100 pcm_s16le
frame=  226 fps=0.0 q=-0.0 size=N/A time=00:00:09.42 bitrate=N/A speed=18.5x    frame=  478 fps=468 q=-0.0 size=N/A time=00:00:19.93 bitrate=N/A speed=19.5x    frame=  728 fps=470 q=-0.0 size=N/A time=00:00:30.36 bitrate=N/A speed=19.6x    frame=  973 fps=473 q=-0.0 size=N/A time=00:00:40.58 bitrate=N/A speed=19.7x    frame= 1211 fps=469 q=-0.0 size=N/A time=00:00:50.50 bitrate=N/A speed=19.6x    frame= 1388 fps=449 q=-0.0 size=N/A time=00:00:57.89 bitrate=N/A speed=18.7x    frame= 1616 fps=449 q=-0.0 size=N/A time=00:01:07.40 bitrate=N/A speed=18.7x    frame= 1841 fps=447 q=-0.0 size=N/A time=00:01:16.78 bitrate=N/A speed=18.6x    frame= 2082 fps=450 q=-0.0 size=N/A time=00:01:26.83 bitrate=N/A speed=18.8x    [Parsed_psnr_10 @ 0000017f4960cbc0] PSNR y:48.842641 u:50.127570 v:49.677515 average:49.166382 min:41.208591 max:95.700634
[out#0/null @ 0000017f4798f540] video:938KiB audio:17084KiB subtitle:0KiB other streams:0KiB global headers:0KiB muxing overhead: unknown
frame= 2184 fps=457 q=-0.0 Lsize=N/A time=00:01:31.09 bitrate=N/A speed=19.1x    
